<svg width="29" height="29" xmlns="http://www.w3.org/2000/svg" xmlns:xlink="http://www.w3.org/1999/xlink" xmlns:svgjs="http://svgjs.com/svgjs" viewBox="0.013 0 28.974 29"><svg xmlns="http://www.w3.org/2000/svg" width="29" height="29" viewBox="2 1.974 28 28.026" fill="#fff"><path fill="#FFF" paint-order="stroke fill markers" fill-rule="evenodd" d="M8.555 14.431c3.297-4.73 4.467-6.078 4.272-8.816-.195-2.737.363-3.49 1.691-3.626 1.328-.135 3.823.572 4.26 5.053.19 1.938-1.231 5.757-1.231 5.757l9.943.005c1.408 0 2.51.587 2.51 2.458 0 1.752-1.988 2.28-1.988 2.28s1.273.484 1.273 1.958c0 1.493-1.325 2.166-2.197 2.166.543.263 1.3.768 1.134 2.045-.167 1.276-1.101 1.74-2.023 2.016.596.358 1.03 1.35.698 2.114-.447 1.027-1.626 2.16-4.272 2.16H10.264c-.937 0-1.633-.418-1.78-.931V15s0-.452.071-.57zm-5.774-.9h4.844v16.47H2.781V13.53zm-.781 0h4.844v16.47H2V13.53z"/></svg></svg>