<svg width="29" height="29" xmlns="http://www.w3.org/2000/svg" xmlns:xlink="http://www.w3.org/1999/xlink" xmlns:svgjs="http://svgjs.com/svgjs" viewBox="0.013 0 28.974 29"><svg xmlns="http://www.w3.org/2000/svg" width="29" height="29" viewBox="2 2 28 28.026" fill="#fff"><path fill="#FFF" paint-order="stroke fill markers" fill-rule="evenodd" d="M23.445 17.569c-3.297 4.73-4.467 6.078-4.272 8.816.195 2.737-.363 3.49-1.691 3.626-1.328.135-3.823-.572-4.26-5.053-.19-1.938 1.231-5.756 1.231-5.756l-9.943-.006c-1.408 0-2.51-.587-2.51-2.458 0-1.752 1.988-2.28 1.988-2.28s-1.273-.484-1.273-1.958c0-1.493 1.325-2.166 2.197-2.166-.543-.263-1.3-.768-1.134-2.045.167-1.275 1.101-1.74 2.023-2.016-.596-.358-1.03-1.35-.698-2.113C5.55 3.132 6.729 2 9.375 2h12.361c.937 0 1.633.417 1.78.93V17s0 .452-.071.57zM24.375 2h4.844V18.47h-4.844V2zm.781 0H30V18.47h-4.844V2z"/></svg></svg>